<?xml version="1.0" encoding="UTF-8" standalone="no"?>
<!-- Created with Inkscape (http://www.inkscape.org/) -->

<svg
   xmlns:dc="http://purl.org/dc/elements/1.1/"
   xmlns:cc="http://creativecommons.org/ns#"
   xmlns:rdf="http://www.w3.org/1999/02/22-rdf-syntax-ns#"
   xmlns:svg="http://www.w3.org/2000/svg"
   xmlns="http://www.w3.org/2000/svg"
   xmlns:sodipodi="http://sodipodi.sourceforge.net/DTD/sodipodi-0.dtd"
   xmlns:inkscape="http://www.inkscape.org/namespaces/inkscape"
   version="1.1"
   id="svg2"
   width="366.22589"
   height="90.5"
   viewBox="0 0 366.22589 90.5"
   sodipodi:docname="l1.svg"
   inkscape:version="0.92.4 (5da689c313, 2019-01-14)">
  <metadata
     id="metadata8">
    <rdf:RDF>
      <cc:Work
         rdf:about="">
        <dc:format>image/svg+xml</dc:format>
        <dc:type
           rdf:resource="http://purl.org/dc/dcmitype/StillImage" />
        <dc:title></dc:title>
      </cc:Work>
    </rdf:RDF>
  </metadata>
  <defs
     id="defs6" />
  <sodipodi:namedview
     pagecolor="#ffffff"
     bordercolor="#666666"
     borderopacity="1"
     objecttolerance="10"
     gridtolerance="10"
     guidetolerance="10"
     inkscape:pageopacity="0"
     inkscape:pageshadow="2"
     inkscape:window-width="1920"
     inkscape:window-height="1001"
     id="namedview4"
     showgrid="false"
     inkscape:zoom="1.5945946"
     inkscape:cx="297.10399"
     inkscape:cy="-40.59322"
     inkscape:window-x="-9"
     inkscape:window-y="-9"
     inkscape:window-maximized="1"
     inkscape:current-layer="svg2" />
  <g
     id="g1044"
     transform="translate(207.60399,57.09322)">
    <path
       id="path877"
       d="m -167.59353,31.90678 c 0,-0.825 0.62152,-1.5 1.38116,-1.5 0.75964,0 1.38117,0.675 1.38117,1.5 0,0.825 -0.62153,1.5 -1.38117,1.5 -0.75964,0 -1.38116,-0.675 -1.38116,-1.5 z"
       style="fill:#748ed2;fill-opacity:1;stroke-width:1.17523026"
       inkscape:connector-curvature="0" />
    <path
       id="path875"
       d="m -162.06887,32.384589 c 0,-0.459224 -0.97668,-1.542095 -2.1704,-2.40638 -1.9731,-1.428572 -1.89688,-1.571429 0.83835,-1.571429 2.10701,0 2.77048,0.449562 2.21375,1.5 -0.43725,0.825 -0.2691,1.5 0.3737,1.5 1.77814,0 4.36861,-2.594738 3.33651,-3.342009 -0.49985,-0.361895 0.003,-0.657991 1.11691,-0.657991 1.11414,0 2.77154,0.54 3.68311,1.2 1.28908,0.933333 1.6574,0.920218 1.6574,-0.05902 0,-0.692459 0.62152,-0.980902 1.38117,-0.640983 2.21381,0.990624 1.60197,2.224931 -1.38308,2.79011 -1.52033,0.287855 -2.41593,0.115339 -1.99023,-0.383369 0.42569,-0.498704 -0.19498,-0.906738 -1.37926,-0.906738 -1.18429,0 -2.15326,0.622516 -2.15326,1.383369 0,0.760852 -1.24305,1.618724 -2.76234,1.90638 -1.51928,0.287656 -2.76233,0.147283 -2.76233,-0.31194 z"
       style="fill:#748ed2;fill-opacity:1;stroke-width:1.17523026"
       inkscape:connector-curvature="0" />
    <path
       id="path873"
       d="m -175.88053,30.60678 c 0,-1.246223 3.12012,-3.2 5.11031,-3.2 0.98754,0 1.79552,0.723145 1.79552,1.606989 0,1.017592 -0.75986,1.395874 -2.07175,1.031385 -1.13946,-0.316583 -2.07175,-0.139728 -2.07175,0.393011 0,0.532738 -0.62152,0.968615 -1.38116,0.968615 -0.75965,0 -1.38117,-0.36 -1.38117,-0.8 z"
       style="fill:#748ed2;fill-opacity:1;stroke-width:1.17523026"
       inkscape:connector-curvature="0" />
    <path
       id="path871"
       d="m -184.7768,27.874977 c -2.57379,-1.40947 -2.53408,-1.468197 0.99252,-1.468197 2.69794,0 3.46242,0.398367 2.87854,1.5 -0.43725,0.825 -0.88387,1.485688 -0.99252,1.468197 -0.10869,-0.01749 -1.40398,-0.692492 -2.87854,-1.5 z"
       style="fill:#748ed2;fill-opacity:1;stroke-width:1.17523026"
       inkscape:connector-curvature="0" />
    <path
       id="path869"
       d="m -179.7035,26.40678 c -0.94881,-1.1 -1.22262,-2 -0.60847,-2 1.43887,0 4.43144,2.160974 4.43144,3.2 0,1.473397 -2.08024,0.820424 -3.82297,-1.2 z"
       style="fill:#748ed2;fill-opacity:1;stroke-width:1.17523026"
       inkscape:connector-curvature="0" />
    <path
       id="path867"
       d="m -147.99143,26.863939 c -2.6974,-1.01475 -2.83922,-1.295663 -0.92292,-1.828077 3.21378,-0.892899 3.40827,-0.830901 3.51656,1.120918 0.0823,1.483139 0.26373,1.445016 1.19002,-0.25 0.60113,-1.1 0.83249,-2.504431 0.51413,-3.120958 -0.84529,-1.636997 3.97846,-2.691768 5.31832,-1.162912 0.83636,0.954352 1.17489,0.834715 1.31894,-0.46613 0.10663,-0.9625 0.34917,-2.2 0.53908,-2.75 0.18991,-0.55 0.42299,-1.723145 0.51794,-2.606989 0.11298,-1.051844 0.94585,-1.392166 2.41085,-0.985138 1.70917,0.474867 2.07017,0.156592 1.52726,-1.346535 -0.93138,-2.578698 2.12346,-5.6344093 4.54815,-4.5494313 1.35545,0.606527 0.9726,1.046245 -1.48369,1.7041273 -2.5389,0.680006 -2.86895,1.084256 -1.41604,1.734393 2.4807,1.110043 0.86865,4.093319 -2.56295,4.743048 -1.5932,0.301653 -2.35922,1.070695 -1.91026,1.917796 1.00424,1.894777 -2.02943,4.407198 -4.49457,3.722299 -1.38304,-0.384257 -1.97077,0.198006 -1.97077,1.952452 0,3.018668 -2.34714,3.786123 -6.64005,2.171137 z"
       style="fill:#748ed2;fill-opacity:1;stroke-width:1.17523026"
       inkscape:connector-curvature="0" />
    <path
       id="path865"
       d="m -185.54869,23.843352 c 0,-1.357044 -0.38719,-1.448811 -2.00675,-0.475629 -2.89478,1.739431 -5.9863,-0.618674 -5.12347,-3.907999 0.57904,-2.207468 0.381,-2.380334 -1.46343,-1.277421 -1.75339,1.048475 -2.27701,1.003974 -2.94162,-0.25 -0.84955,-1.602921 1.34415,-1.991781 5.19723,-0.921265 1.49444,0.415207 1.91922,1.341792 1.3577,2.961604 -0.68272,1.969477 -0.35487,2.292886 1.99252,1.965578 3.22284,-0.449374 6.76442,1.896665 4.43605,2.938549 -0.79653,0.356425 -1.44823,-0.108613 -1.44823,-1.033417 z"
       style="fill:#748ed2;fill-opacity:1;stroke-width:1.17523026"
       inkscape:connector-curvature="0" />
    <path
       id="path863"
       d="m -197.43754,13.940487 c 0.43406,-2.141225 2.22068,-3.154456 2.22068,-1.259391 0,0.884208 -0.56696,1.861351 -1.25992,2.17143 -0.69296,0.310079 -1.12529,-0.100338 -0.96076,-0.912039 z"
       style="fill:#748ed2;fill-opacity:1;stroke-width:1.17523026"
       inkscape:connector-curvature="0" />
    <path
       id="path861"
       d="m -157.38256,11.824993 c 0.46109,-0.869984 0.83836,-1.769984 0.83836,-2.0000003 0,-0.230017 0.87704,-0.418213 1.94896,-0.418213 1.07194,0 3.49726,-1.332229 5.38961,-2.960509 12.18022,-10.480538 9.74664,-33.1255677 -4.24914,-39.5394907 -4.29731,-1.969345 -5.69476,-3.5 -3.19541,-3.5 2.94688,0 9.88581,5.465907 13.23964,10.429085 8.26735,12.234493 5.06033,27.3868007 -7.79326,36.820915 -4.1227,3.025936 -7.50198,3.664853 -6.17876,1.168213 z"
       style="fill:#3cda35;fill-opacity:1;stroke-width:1.17523026"
       inkscape:connector-curvature="0" />
    <path
       id="path859"
       d="m -201.81357,9.9986557 c -1.1562,-1.837287 -1.05644,-2.821736 0.42989,-4.242185 1.70969,-1.633918 1.94059,-1.655268 1.9794,-0.183024 0.0242,0.916666 -0.73298,1.877834 -1.68253,2.135929 -1.03287,0.280739 -0.42921,0.83833 1.50258,1.387927 2.71986,0.7738 2.9174,1.1059363 1.25267,2.1062553 -1.59469,0.958222 -2.26719,0.725509 -3.48201,-1.2049023 z"
       style="fill:#748ed2;fill-opacity:1;stroke-width:1.17523026"
       inkscape:connector-curvature="0" />
    <path
       id="path857"
       d="m -179.14657,8.7087457 c -13.75647,-9.960035 -13.23655,-31.2580427 1.03876,-42.5519657 3.33605,-2.639327 7.75194,-3.705963 7.75194,-1.872445 0,1.179338 -3.52218,3.238966 -4.42326,2.586551 -1.28103,-0.927501 -8.14102,6.463914 -10.3443,11.145639 -2.9506,6.269748 -1.91279,18.4408937 2.04769,24.0144637 1.61182,2.268315 4.82241,5.276763 7.13465,6.68544 2.31223,1.4086773 4.20406,2.8152833 4.20406,3.1257913 0,1.414308 -2.71286,0.26705 -7.40954,-3.1334743 z"
       style="fill:#3cda35;fill-opacity:1;stroke-width:1.17523026"
       inkscape:connector-curvature="0" />
    <path
       id="path855"
       d="m -169.66528,7.0269607 c -8.59924,-2.795352 -13.30357,-9.585134 -13.38109,-19.3129337 -0.0653,-8.203498 4.32448,-14.9116 11.63759,-17.783336 2.76774,-1.086849 5.42349,-1.692836 5.90164,-1.346638 0.47816,0.346198 -0.43482,3.710438 -2.02884,7.476089 -1.59403,3.765651 -3.20879,7.578354 -3.58837,8.472673 -0.43955,1.035621 0.29456,1.812478 2.02181,2.139509 2.59002,0.490386 2.62502,0.776992 0.77851,6.3739647 -2.86989,8.698962 -2.5215,8.646155 4.21898,-0.639509 6.84352,-9.4276107 7.07865,-9.9999997 4.10793,-9.9999997 -2.70773,0 -2.61633,-0.914342 0.6415,-6.417095 1.49229,-2.520598 3.61202,-4.582905 4.71053,-4.582905 1.09851,0 3.6067,2.338355 5.57375,5.196344 10.59784,15.3979177 -3.36442,36.024636 -20.59394,30.4238367 z"
       style="fill:#3cda35;fill-opacity:1;stroke-width:1.17523026"
       inkscape:connector-curvature="0" />
    <path
       id="path853"
       d="m -127.4764,6.4924257 c -1.069,-1.446188 -1.09002,-2.085646 -0.0685,-2.085646 1.6744,0 3.49797,2.804513 2.35953,3.628774 -0.41213,0.298385 -1.44306,-0.396022 -2.29097,-1.543128 z"
       style="fill:#748ed2;fill-opacity:1;stroke-width:1.17523026"
       inkscape:connector-curvature="0" />
    <path
       id="path851"
       d="m -204.88502,2.9067797 c 0,-0.916667 0.66814,-1.505417 1.48476,-1.308333 0.81661,0.197083 1.48475,0.785833 1.48475,1.308333 0,0.5225 -0.66814,1.11125 -1.48475,1.308333 -0.81662,0.197084 -1.48476,-0.391666 -1.48476,-1.308333 z"
       style="fill:#748ed2;fill-opacity:1;stroke-width:1.17523026"
       inkscape:connector-curvature="0" />
    <path
       id="path849"
       d="m -127.53972,2.0003997 c 0,-0.933062 0.96896,-1.22292104 2.87909,-0.861263 2.18895,0.41445 2.43726,0.747898 1.03587,1.391068 -2.68403,1.231852 -3.91496,1.065275 -3.91496,-0.529805 z"
       style="fill:#748ed2;fill-opacity:1;stroke-width:1.17523026"
       inkscape:connector-curvature="0" />
    <path
       id="path847"
       d="m -205.5756,-0.26708934 c 1.88779,-1.12916596 2.64464,-4.70052296 0.82345,-3.88558496 -2.30757,1.032571 -3.45028,-4.250207 -1.32298,-6.1161527 1.4693,-1.288788 1.50304,-1.741664 0.15424,-2.070348 -0.94955,-0.231391 -1.7067,-1.170712 -1.68254,-2.087378 0.0378,-1.436316 0.3242,-1.398383 2.07175,0.274463 2.48213,2.376021 2.62667,5.2116567 0.30137,5.9127147 -1.24222,0.374519 -1.01746,0.936098 0.80133,2.002207 2.9274,1.715935 2.63688,5.78793496 -0.45604,6.39175096 -1.23733,0.241558 -1.51547,0.07172 -0.69058,-0.421672 z"
       style="fill:#748ed2;fill-opacity:1;stroke-width:1.17523026"
       inkscape:connector-curvature="0" />
    <path
       id="path845"
       d="m -124.54597,-1.2801423 c -2.19347,-2.967452 -2.02607,-5.260966 0.43388,-5.944424 1.54924,-0.430433 1.70522,-1.030215 0.64198,-2.468615 -1.09634,-1.4831947 -0.93929,-1.9000387 0.71589,-1.9000387 2.97051,0 2.74957,4.9303447 -0.29671,6.6207537 -1.98733,1.102791 -2.08017,1.501839 -0.52224,2.244589 1.04214,0.496842 1.61243,1.516695 1.2673,2.26633996 -0.44135,0.958638 -1.1059,0.715785 -2.2401,-0.81860496 z"
       style="fill:#748ed2;fill-opacity:1;stroke-width:1.17523026"
       inkscape:connector-curvature="0" />
    <path
       id="path843"
       d="m -124.77738,-14.09322 c 0,-0.825 1.00839,-1.5 2.24085,-1.5 1.8353,0 1.92967,0.271492 0.52148,1.5 -0.94567,0.825 -1.95406,1.5 -2.24086,1.5 -0.28681,0 -0.52147,-0.675 -0.52147,-1.5 z"
       style="fill:#748ed2;fill-opacity:1;stroke-width:1.17523026"
       inkscape:connector-curvature="0" />
    <path
       id="path841"
       d="m -206.86732,-17.488435 c -0.42029,-0.492369 0.17862,-1.157156 1.33093,-1.477306 1.72727,-0.479899 1.79521,-0.929759 0.38695,-2.562435 -1.44807,-1.678815 -1.24401,-2.338061 1.34021,-4.329695 2.22619,-1.715701 2.63655,-2.647516 1.52149,-3.454849 -0.83979,-0.608025 -1.21709,-1.707375 -0.83846,-2.443 0.98251,-1.908899 3.51987,3.127512 2.70804,5.375205 -0.35504,0.983012 -1.5272,1.787295 -2.6048,1.787295 -1.50906,0 -1.63073,0.444445 -0.5295,1.934259 2.06077,2.787913 1.7579,6.065741 -0.56046,6.065741 -1.09464,0 -2.33411,-0.402847 -2.7544,-0.895215 z"
       style="fill:#748ed2;fill-opacity:1;stroke-width:1.17523026"
       inkscape:connector-curvature="0" />
    <path
       id="path839"
       d="m -124.43209,-18.089051 c -2.19202,-1.802618 -2.24909,-5.504169 -0.0848,-5.504169 0.90289,0 0.28136,-0.91753 -1.38116,-2.038955 -3.31135,-2.233617 -3.94139,-4.572677 -1.39707,-5.186729 0.92438,-0.223089 1.16202,-0.935554 0.55088,-1.651507 -0.59115,-0.692536 -1.93791,-1.019362 -2.99279,-0.726279 -1.20809,0.335652 -2.2269,-0.35831 -2.75265,-1.874991 -0.93821,-2.706495 0.15302,-4.560728 2.6145,-4.442592 1.18753,0.057 1.20564,0.209364 0.0651,0.547948 -0.86891,0.25795 -1.26439,1.342362 -0.87885,2.409805 0.38554,1.067443 1.22066,1.708263 1.85583,1.424044 2.27419,-1.017637 4.26055,3.393702 2.56252,5.690886 -1.32857,1.797366 -1.2463,2.056017 0.4997,1.570918 2.6402,-0.733541 4.21617,4.160242 1.97221,6.124229 -1.16849,1.022707 -0.97286,1.576071 0.81304,2.29969 2.35735,0.955164 3.26021,2.88689 1.31592,2.815496 -0.56973,-0.02092 -1.81278,-0.676928 -2.76233,-1.457794 z"
       style="fill:#748ed2;fill-opacity:1;stroke-width:1.17523026"
       inkscape:connector-curvature="0" />
    <path
       id="path837"
       d="m -199.82074,-32.259887 c -1.62429,-1.176023 -0.99228,-2.086533 1.81759,-2.618545 2.32929,-0.441021 2.52836,-0.23436 1.33258,1.383368 -1.55373,2.101971 -1.81273,2.203522 -3.15017,1.235177 z"
       style="fill:#748ed2;fill-opacity:1;stroke-width:1.17523026"
       inkscape:connector-curvature="0" />
    <path
       id="path835"
       d="m -199.36035,-37.986231 c 0,-1.295053 2.60148,-2.566394 6.4649,-3.159384 0.91747,-0.14082 1.29262,0.387813 0.85765,1.208512 -0.42525,0.802353 -1.62527,1.222086 -2.6667,0.932738 -1.07421,-0.298452 -1.89352,0.109374 -1.89352,0.94253 0,0.807738 -0.62153,1.468615 -1.38117,1.468615 -0.75964,0 -1.38116,-0.626855 -1.38116,-1.393011 z"
       style="fill:#748ed2;fill-opacity:1;stroke-width:1.17523026"
       inkscape:connector-curvature="0" />
    <path
       id="path833"
       d="m -137.19328,-41.080485 c -0.93765,-0.817996 -1.34401,-2.167996 -0.90305,-3 0.44097,-0.832004 0.0443,-1.564642 -0.88135,-1.628085 -0.92571,-0.06344 -2.6154,-0.175942 -3.75486,-0.25 -1.32543,-0.08614 -1.91422,-0.953196 -1.63445,-2.406857 0.24052,-1.249714 -0.16347,-2.149714 -0.89776,-2 -1.22632,0.250036 -1.61129,-0.192025 -1.61129,-1.850238 0,-0.342344 0.93229,-0.06224 2.07175,0.622445 1.13946,0.684689 2.07175,2.144889 2.07175,3.244889 0,1.546078 0.41497,1.750649 1.82837,0.901349 2.60976,-1.56817 5.07231,0.510479 5.0986,4.303762 0.0157,2.271787 0.34901,2.674662 1.30607,1.57896 0.70671,-0.809071 1.69171,-1.17651 2.1889,-0.816531 1.06513,0.771173 -0.41584,2.787571 -2.04734,2.787571 -0.6218,0 -1.89769,-0.669269 -2.83534,-1.487265 z"
       style="fill:#748ed2;fill-opacity:1;stroke-width:1.17523026"
       inkscape:connector-curvature="0" />
    <path
       id="path831"
       d="m -193.83569,-43.970775 c 0,-2.126842 3.1066,-3.368885 6.74386,-2.696243 2.89707,0.535759 3.03438,0.762761 1.14736,1.89665 -1.7851,1.072647 -2.38617,0.986121 -3.59423,-0.517401 -1.3242,-1.648051 -1.45433,-1.609295 -1.49266,0.444549 -0.0231,1.2375 -0.66352,2.25 -1.42316,2.25 -0.75964,0 -1.38117,-0.6199 -1.38117,-1.377555 z"
       style="fill:#748ed2;fill-opacity:1;stroke-width:1.17523026"
       inkscape:connector-curvature="0" />
    <path
       id="path829"
       d="m -186.92986,-48.664649 c 0,-0.589285 0.77885,-1.635344 1.73081,-2.324575 1.38695,-1.004196 2.22886,-0.910788 4.23786,0.470184 1.50264,1.032898 1.94992,1.97264 1.11641,2.345608 -0.76485,0.342252 -2.03146,-0.174688 -2.81469,-1.148756 -1.34569,-1.673565 -1.42637,-1.674723 -1.46606,-0.02103 -0.0231,0.9625 -0.66352,1.75 -1.42316,1.75 -0.75964,0 -1.38117,-0.482143 -1.38117,-1.071429 z"
       style="fill:#748ed2;fill-opacity:1;stroke-width:1.17523026"
       inkscape:connector-curvature="0" />
    <path
       id="path827"
       d="m -152.40071,-51.09322 c 0,-0.825 0.62153,-1.5 1.38117,-1.5 0.75964,0 1.38117,0.675 1.38117,1.5 0,0.825 -0.62153,1.5 -1.38117,1.5 -0.75964,0 -1.38117,-0.675 -1.38117,-1.5 z"
       style="fill:#748ed2;fill-opacity:1;stroke-width:1.17523026"
       inkscape:connector-curvature="0" />
    <path
       id="path825"
       d="m -175.23645,-52.406362 c -0.66651,-1.164259 -1.16547,-1.2996 -1.61056,-0.436858 -0.75786,1.468991 -3.17702,1.686146 -3.17702,0.285184 0,-2.103451 4.80071,-2.744927 7.14433,-0.954632 1.83295,1.400197 1.9279,1.87104 0.4596,2.278987 -1.01787,0.282797 -2.28522,-0.24491 -2.81635,-1.172681 z"
       style="fill:#748ed2;fill-opacity:1;stroke-width:1.17523026"
       inkscape:connector-curvature="0" />
    <path
       id="path823"
       d="m -157.59241,-51.346196 c -0.94277,-0.22753 -1.67474,-1.613691 -1.62659,-3.080357 l 0.0876,-2.666667 1.50399,2.5 c 1.23933,2.060048 1.60634,2.192033 2.08548,0.75 0.62876,-1.892309 3.14127,-2.435056 3.14127,-0.678571 0,1.640764 -3.2682,3.639817 -5.19171,3.175595 z"
       style="fill:#748ed2;fill-opacity:1;stroke-width:1.17523026"
       inkscape:connector-curvature="0" />
    <path
       id="path821"
       d="m -165.17649,-52.382544 c -1.32938,-0.196528 -2.41704,-0.822473 -2.41704,-1.390989 0,-0.568516 0.93228,-0.774643 2.07175,-0.458061 1.26198,0.350624 2.07174,0.0016 2.07174,-0.893011 0,-0.807739 0.62153,-1.468615 1.38117,-1.468615 1.55482,0 1.61969,0.792999 0.24821,3.034 -0.51633,0.8437 -2.02646,1.373204 -3.35583,1.176676 z"
       style="fill:#748ed2;fill-opacity:1;stroke-width:1.17523026"
       inkscape:connector-curvature="0" />
    <path
       id="path817"
       d="m -171.73703,-55.09322 c 0,-0.850575 1.23866,-1.5 2.86099,-1.5 2.5431,0 2.63079,0.166666 0.78924,1.5 -1.13947,0.825 -2.42692,1.5 -2.86099,1.5 -0.43409,0 -0.78924,-0.675 -0.78924,-1.5 z"
       style="fill:#748ed2;fill-opacity:1;stroke-width:1.17523026"
       inkscape:connector-curvature="0" />
  </g>
  <g
     id="g1095"
     transform="translate(207.60399,58.823602)">
    <g
       transform="matrix(0.57011443,0,0,0.57011443,65.365631,-80.88672)"
       id="flowRoot879"
       style="font-style:normal;font-variant:normal;font-weight:normal;font-stretch:normal;font-size:40px;line-height:0;font-family:'Adobe Naskh';-inkscape-font-specification:'Adobe Naskh';letter-spacing:0px;word-spacing:0px;fill:#748ed2;fill-opacity:1;stroke:none"
       aria-label="Shreesha Energy Solutions">
      <path
         inkscape:connector-curvature="0"
         id="path942"
         style="font-style:normal;font-variant:normal;font-weight:normal;font-stretch:normal;font-family:Ebrima;-inkscape-font-specification:Ebrima;fill:#748ed2;fill-opacity:1"
         d="m -298.02734,97.067286 v -3.867187 q 0.66406,0.585937 1.58203,1.054687 0.9375,0.46875 1.95312,0.800782 1.03516,0.3125 2.07032,0.488281 1.03515,0.175781 1.91406,0.175781 3.02734,0 4.51172,-1.113281 1.5039,-1.132813 1.5039,-3.242188 0,-1.132812 -0.50781,-1.972656 -0.48828,-0.839844 -1.36719,-1.523437 -0.8789,-0.703125 -2.08984,-1.328125 -1.19141,-0.644532 -2.57813,-1.347657 -1.46484,-0.742187 -2.73437,-1.503906 -1.26953,-0.761719 -2.20703,-1.679687 -0.9375,-0.917969 -1.48438,-2.070313 -0.52734,-1.171875 -0.52734,-2.734375 0,-1.914062 0.83984,-3.320312 0.83985,-1.425782 2.20703,-2.34375 1.36719,-0.917969 3.10547,-1.367188 1.75782,-0.449219 3.57422,-0.449219 4.14063,0 6.03516,0.996094 v 3.691406 q -2.48047,-1.71875 -6.36719,-1.71875 -1.07422,0 -2.14844,0.234375 -1.07422,0.214844 -1.91406,0.722657 -0.83984,0.507812 -1.36719,1.308593 -0.52734,0.800782 -0.52734,1.953125 0,1.074219 0.39062,1.855469 0.41016,0.78125 1.19141,1.425781 0.78125,0.644532 1.89453,1.25 1.13281,0.605469 2.59766,1.328125 1.5039,0.742188 2.85156,1.5625 1.34766,0.820313 2.36328,1.816407 1.01563,0.996093 1.60156,2.207031 0.60547,1.210937 0.60547,2.773437 0,2.070313 -0.82031,3.515625 -0.80078,1.425782 -2.1875,2.324219 -1.36719,0.898438 -3.16406,1.289063 -1.79688,0.410156 -3.78906,0.410156 -0.66407,0 -1.64063,-0.117188 -0.97656,-0.09766 -1.99219,-0.3125 -1.01562,-0.195312 -1.93359,-0.488281 -0.89844,-0.3125 -1.44531,-0.683594 z" />
      <path
         inkscape:connector-curvature="0"
         id="path944"
         style="font-style:normal;font-variant:normal;font-weight:normal;font-stretch:normal;font-family:Ebrima;-inkscape-font-specification:Ebrima;fill:#748ed2;fill-opacity:1"
         d="M -259.29687,98.200099 H -262.5 V 86.676661 q 0,-6.25 -4.64844,-6.25 -2.34375,0 -3.94531,1.816407 -1.60156,1.796875 -1.60156,4.628906 v 11.328125 h -3.20313 V 68.590724 h 3.20313 v 12.929687 h 0.0781 q 2.30469,-3.789062 6.5625,-3.789062 6.75782,0 6.75782,8.144531 z" />
      <path
         inkscape:connector-curvature="0"
         id="path946"
         style="font-style:normal;font-variant:normal;font-weight:normal;font-stretch:normal;font-family:Ebrima;-inkscape-font-specification:Ebrima;fill:#748ed2;fill-opacity:1"
         d="m -242.8125,81.442286 q -0.83984,-0.644531 -2.42187,-0.644531 -2.05079,0 -3.4375,1.933594 -1.36719,1.933594 -1.36719,5.273437 v 10.195313 h -3.20313 v -20 h 3.20313 v 4.121094 h 0.0781 q 0.6836,-2.109375 2.08985,-3.28125 1.40625,-1.191407 3.14453,-1.191407 1.25,0 1.91406,0.273438 z" />
      <path
         inkscape:connector-curvature="0"
         id="path948"
         style="font-style:normal;font-variant:normal;font-weight:normal;font-stretch:normal;font-family:Ebrima;-inkscape-font-specification:Ebrima;fill:#748ed2;fill-opacity:1"
         d="m -223.26172,89.00088 h -14.12109 q 0.0781,3.339844 1.79687,5.15625 1.71875,1.816406 4.72657,1.816406 3.3789,0 6.21093,-2.226562 v 3.007812 q -2.63672,1.914063 -6.97265,1.914063 -4.23828,0 -6.66016,-2.714844 -2.42187,-2.734375 -2.42187,-7.675781 0,-4.667969 2.63671,-7.597656 2.65625,-2.949219 6.58204,-2.949219 3.92578,0 6.07421,2.539062 2.14844,2.539063 2.14844,7.050782 z m -3.28125,-2.714844 q -0.0195,-2.773437 -1.34765,-4.316406 -1.3086,-1.542969 -3.65235,-1.542969 -2.26562,0 -3.84765,1.621094 -1.58204,1.621094 -1.95313,4.238281 z" />
      <path
         inkscape:connector-curvature="0"
         id="path950"
         style="font-style:normal;font-variant:normal;font-weight:normal;font-stretch:normal;font-family:Ebrima;-inkscape-font-specification:Ebrima;fill:#748ed2;fill-opacity:1"
         d="m -202.32422,89.00088 h -14.12109 q 0.0781,3.339844 1.79687,5.15625 1.71875,1.816406 4.72657,1.816406 3.3789,0 6.21093,-2.226562 v 3.007812 q -2.63672,1.914063 -6.97265,1.914063 -4.23828,0 -6.66016,-2.714844 -2.42187,-2.734375 -2.42187,-7.675781 0,-4.667969 2.63671,-7.597656 2.65625,-2.949219 6.58204,-2.949219 3.92578,0 6.07421,2.539062 2.14844,2.539063 2.14844,7.050782 z m -3.28125,-2.714844 q -0.0195,-2.773437 -1.34765,-4.316406 -1.3086,-1.542969 -3.65235,-1.542969 -2.26562,0 -3.84765,1.621094 -1.58204,1.621094 -1.95313,4.238281 z" />
      <path
         inkscape:connector-curvature="0"
         id="path952"
         style="font-style:normal;font-variant:normal;font-weight:normal;font-stretch:normal;font-family:Ebrima;-inkscape-font-specification:Ebrima;fill:#748ed2;fill-opacity:1"
         d="m -198.67187,97.477443 v -3.4375 q 2.61718,1.933593 5.76171,1.933593 4.21875,0 4.21875,-2.8125 0,-0.800781 -0.37109,-1.347656 -0.35156,-0.566406 -0.97656,-0.996094 -0.60547,-0.429687 -1.44531,-0.761718 -0.82032,-0.351563 -1.77735,-0.722657 -1.32812,-0.527343 -2.34375,-1.054687 -0.99609,-0.546875 -1.67969,-1.210938 -0.66406,-0.683593 -1.01562,-1.542968 -0.33203,-0.859375 -0.33203,-2.011719 0,-1.40625 0.64453,-2.480469 0.64453,-1.09375 1.71875,-1.816406 1.07422,-0.742188 2.44141,-1.113281 1.38671,-0.371094 2.85156,-0.371094 2.59765,0 4.64844,0.898437 v 3.242188 q -2.20704,-1.445313 -5.07813,-1.445313 -0.89844,0 -1.62109,0.214844 -0.72266,0.195313 -1.25,0.566406 -0.50782,0.371094 -0.80078,0.898438 -0.27344,0.507812 -0.27344,1.132812 0,0.78125 0.27344,1.308594 0.29296,0.527344 0.83984,0.9375 0.54687,0.410156 1.32812,0.742188 0.78125,0.332031 1.77735,0.722656 1.32812,0.507812 2.38281,1.054687 1.05469,0.527344 1.79688,1.210938 0.74218,0.664062 1.13281,1.542969 0.41015,0.878906 0.41015,2.089843 0,1.484375 -0.66406,2.578125 -0.64453,1.09375 -1.73828,1.816407 -1.09375,0.722656 -2.51953,1.074218 -1.42578,0.351563 -2.98828,0.351563 -3.08594,0 -5.35156,-1.191406 z" />
      <path
         inkscape:connector-curvature="0"
         id="path954"
         style="font-style:normal;font-variant:normal;font-weight:normal;font-stretch:normal;font-family:Ebrima;-inkscape-font-specification:Ebrima;fill:#748ed2;fill-opacity:1"
         d="m -163.90625,98.200099 h -3.20312 V 86.676661 q 0,-6.25 -4.64844,-6.25 -2.34375,0 -3.94531,1.816407 -1.60157,1.796875 -1.60157,4.628906 v 11.328125 h -3.20312 V 68.590724 h 3.20312 v 12.929687 h 0.0781 q 2.30469,-3.789062 6.5625,-3.789062 6.75781,0 6.75781,8.144531 z" />
      <path
         inkscape:connector-curvature="0"
         id="path956"
         style="font-style:normal;font-variant:normal;font-weight:normal;font-stretch:normal;font-family:Ebrima;-inkscape-font-specification:Ebrima;fill:#748ed2;fill-opacity:1"
         d="m -143.53516,98.200099 h -3.20312 v -3.125 h -0.0781 q -2.08984,3.59375 -6.15234,3.59375 -2.98828,0 -4.6875,-1.582031 -1.67969,-1.582032 -1.67969,-4.199219 0,-5.605469 6.60157,-6.523438 l 5.99609,-0.839843 q 0,-5.097657 -4.12109,-5.097657 -3.61329,0 -6.52344,2.460938 v -3.28125 q 2.94922,-1.875 6.79687,-1.875 7.05078,0 7.05078,7.460937 z m -3.20312,-10.117188 -4.82422,0.664063 q -2.22656,0.3125 -3.35937,1.113281 -1.13282,0.78125 -1.13282,2.792969 0,1.464844 1.03516,2.402344 1.05469,0.917968 2.79297,0.917968 2.38281,0 3.92578,-1.660156 1.5625,-1.679687 1.5625,-4.238281 z" />
      <path
         inkscape:connector-curvature="0"
         id="path958"
         style="font-style:normal;font-variant:normal;font-weight:normal;font-stretch:normal;font-family:Ebrima;-inkscape-font-specification:Ebrima;fill:#748ed2;fill-opacity:1"
         d="m -111.25,98.200099 h -14.84375 V 70.192286 h 14.21875 v 2.96875 h -10.9375 v 9.316407 h 10.11719 v 2.949218 h -10.11719 v 9.804688 h 11.5625 z" />
      <path
         inkscape:connector-curvature="0"
         id="path960"
         style="font-style:normal;font-variant:normal;font-weight:normal;font-stretch:normal;font-family:Ebrima;-inkscape-font-specification:Ebrima;fill:#748ed2;fill-opacity:1"
         d="m -89.6875,98.200099 h -3.203125 v -11.40625 q 0,-6.367188 -4.648437,-6.367188 -2.402344,0 -3.984378,1.816407 -1.5625,1.796875 -1.5625,4.550781 v 11.40625 h -3.20312 v -20 h 3.20312 v 3.320312 h 0.0781 q 2.26562,-3.789062 6.562498,-3.789062 3.28125,0 5.019531,2.128906 1.738281,2.109375 1.738281,6.113281 z" />
      <path
         inkscape:connector-curvature="0"
         id="path962"
         style="font-style:normal;font-variant:normal;font-weight:normal;font-stretch:normal;font-family:Ebrima;-inkscape-font-specification:Ebrima;fill:#748ed2;fill-opacity:1"
         d="m -67.558594,89.00088 h -14.121093 q 0.07813,3.339844 1.796875,5.15625 1.71875,1.816406 4.726562,1.816406 3.378906,0 6.210938,-2.226562 v 3.007812 q -2.636719,1.914063 -6.972657,1.914063 -4.238281,0 -6.660156,-2.714844 Q -85,93.21963 -85,88.278224 q 0,-4.667969 2.636719,-7.597656 2.65625,-2.949219 6.582031,-2.949219 3.925781,0 6.074219,2.539062 2.148437,2.539063 2.148437,7.050782 z m -3.28125,-2.714844 q -0.01953,-2.773437 -1.347656,-4.316406 -1.308594,-1.542969 -3.652344,-1.542969 -2.265625,0 -3.847656,1.621094 -1.582031,1.621094 -1.953125,4.238281 z" />
      <path
         inkscape:connector-curvature="0"
         id="path964"
         style="font-style:normal;font-variant:normal;font-weight:normal;font-stretch:normal;font-family:Ebrima;-inkscape-font-specification:Ebrima;fill:#748ed2;fill-opacity:1"
         d="m -52.265625,81.442286 q -0.839844,-0.644531 -2.421875,-0.644531 -2.050781,0 -3.4375,1.933594 -1.367187,1.933594 -1.367187,5.273437 v 10.195313 h -3.203125 v -20 h 3.203125 v 4.121094 h 0.07813 q 0.683593,-2.109375 2.089843,-3.28125 1.40625,-1.191407 3.144532,-1.191407 1.25,0 1.914062,0.273438 z" />
      <path
         inkscape:connector-curvature="0"
         id="path966"
         style="font-style:normal;font-variant:normal;font-weight:normal;font-stretch:normal;font-family:Ebrima;-inkscape-font-specification:Ebrima;fill:#748ed2;fill-opacity:1"
         d="m -31.71875,96.598536 q 0,11.015624 -10.546875,11.015624 -3.710937,0 -6.484375,-1.40625 v -3.20312 q 3.378906,1.875 6.445313,1.875 7.382812,0 7.382812,-7.851566 v -2.1875 H -35 q -2.285156,3.828125 -6.875,3.828125 -3.730469,0 -6.015625,-2.65625 -2.265625,-2.675781 -2.265625,-7.167969 0,-5.097656 2.441406,-8.105469 2.460938,-3.007812 6.71875,-3.007812 4.042969,0 5.996094,3.242187 h 0.07813 v -2.773437 h 3.203125 z m -3.203125,-7.441406 v -2.949219 q 0,-2.382812 -1.621094,-4.082031 -1.601562,-1.699219 -4.003906,-1.699219 -2.96875,0 -4.648437,2.167969 -1.679688,2.148438 -1.679688,6.035156 0,3.339844 1.601563,5.351563 1.621093,1.992187 4.277343,1.992187 2.695313,0 4.375,-1.914062 1.699219,-1.914063 1.699219,-4.902344 z" />
      <path
         inkscape:connector-curvature="0"
         id="path968"
         style="font-style:normal;font-variant:normal;font-weight:normal;font-stretch:normal;font-family:Ebrima;-inkscape-font-specification:Ebrima;fill:#748ed2;fill-opacity:1"
         d="m -9.2773438,78.200099 -9.1992182,23.203121 q -2.460938,6.21094 -6.914063,6.21094 -1.25,0 -2.089844,-0.2539 v -2.8711 q 1.035157,0.35156 1.894532,0.35156 2.421875,0 3.632812,-2.89062 l 1.601563,-3.789064 -7.8125,-19.960937 h 3.554687 l 5.410156,15.390625 q 0.09766,0.292969 0.410157,1.523437 h 0.117187 q 0.09766,-0.46875 0.390625,-1.484375 l 5.683594,-15.429687 z" />
      <path
         inkscape:connector-curvature="0"
         id="path970"
         style="font-style:normal;font-variant:normal;font-weight:normal;font-stretch:normal;font-family:Ebrima;-inkscape-font-specification:Ebrima;fill:#748ed2;fill-opacity:1"
         d="m 4.2382812,97.067286 v -3.867187 q 0.6640625,0.585937 1.5820313,1.054687 0.9375,0.46875 1.953125,0.800782 1.0351563,0.3125 2.0703125,0.488281 1.035156,0.175781 1.914063,0.175781 3.027343,0 4.511718,-1.113281 1.503906,-1.132813 1.503906,-3.242188 0,-1.132812 -0.507812,-1.972656 Q 16.777344,88.551661 15.898438,87.868068 15.019531,87.164943 13.808594,86.539943 12.617188,85.895411 11.230469,85.192286 9.765625,84.450099 8.4960938,83.68838 7.2265625,82.926661 6.2890625,82.008693 5.3515625,81.090724 4.8046875,79.93838 4.2773437,78.766505 4.2773437,77.204005 q 0,-1.914062 0.8398438,-3.320312 0.8398437,-1.425782 2.2070312,-2.34375 1.3671876,-0.917969 3.1054693,-1.367188 1.757812,-0.449219 3.574218,-0.449219 4.140625,0 6.035156,0.996094 v 3.691406 q -2.480468,-1.71875 -6.367187,-1.71875 -1.074219,0 -2.148437,0.234375 -1.074219,0.214844 -1.914063,0.722657 -0.8398437,0.507812 -1.3671875,1.308593 -0.5273438,0.800782 -0.5273438,1.953125 0,1.074219 0.3906251,1.855469 0.4101562,0.78125 1.1914062,1.425781 0.78125,0.644532 1.894531,1.25 1.132813,0.605469 2.597657,1.328125 1.503906,0.742188 2.851562,1.5625 1.347656,0.820313 2.363281,1.816407 1.015625,0.996093 1.601563,2.207031 0.605468,1.210937 0.605468,2.773437 0,2.070313 -0.820312,3.515625 -0.800781,1.425782 -2.1875,2.324219 -1.367188,0.898438 -3.164062,1.289063 -1.796875,0.410156 -3.789063,0.410156 -0.664062,0 -1.640625,-0.117188 -0.9765625,-0.09766 -1.9921875,-0.3125 Q 6.6015625,98.043849 5.6835937,97.75088 4.7851562,97.43838 4.2382812,97.067286 Z" />
      <path
         inkscape:connector-curvature="0"
         id="path972"
         style="font-style:normal;font-variant:normal;font-weight:normal;font-stretch:normal;font-family:Ebrima;-inkscape-font-specification:Ebrima;fill:#748ed2;fill-opacity:1"
         d="m 34.726562,98.668849 q -4.433593,0 -7.089843,-2.792969 Q 25,93.06338 25,88.434474 q 0,-5.039063 2.753906,-7.871094 2.753906,-2.832031 7.441406,-2.832031 4.472657,0 6.972657,2.753906 2.519531,2.753906 2.519531,7.636719 0,4.785156 -2.714844,7.675781 -2.695312,2.871094 -7.246094,2.871094 z m 0.234375,-18.242188 q -3.085937,0 -4.882812,2.109375 -1.796875,2.089844 -1.796875,5.78125 0,3.554688 1.816406,5.605469 1.816406,2.050781 4.863281,2.050781 3.105469,0 4.765625,-2.011718 1.679688,-2.011719 1.679688,-5.722657 0,-3.75 -1.679688,-5.78125 -1.660156,-2.03125 -4.765625,-2.03125 z" />
      <path
         inkscape:connector-curvature="0"
         id="path974"
         style="font-style:normal;font-variant:normal;font-weight:normal;font-stretch:normal;font-family:Ebrima;-inkscape-font-specification:Ebrima;fill:#748ed2;fill-opacity:1"
         d="M 53.007812,98.200099 H 49.804687 V 68.590724 h 3.203125 z" />
      <path
         inkscape:connector-curvature="0"
         id="path976"
         style="font-style:normal;font-variant:normal;font-weight:normal;font-stretch:normal;font-family:Ebrima;-inkscape-font-specification:Ebrima;fill:#748ed2;fill-opacity:1"
         d="m 75.664062,98.200099 h -3.203125 v -3.164063 h -0.07813 q -1.992187,3.632813 -6.171875,3.632813 -7.148437,0 -7.148437,-8.515625 V 78.200099 h 3.183594 v 11.445312 q 0,6.328125 4.84375,6.328125 2.34375,0 3.847656,-1.71875 1.523437,-1.738281 1.523437,-4.53125 V 78.200099 h 3.203125 z" />
      <path
         inkscape:connector-curvature="0"
         id="path978"
         style="font-style:normal;font-variant:normal;font-weight:normal;font-stretch:normal;font-family:Ebrima;-inkscape-font-specification:Ebrima;fill:#748ed2;fill-opacity:1"
         d="m 91.425781,98.004786 q -1.132812,0.625 -2.988281,0.625 -5.253906,0 -5.253906,-5.859375 V 80.934474 h -3.4375 v -2.734375 h 3.4375 v -4.882813 l 3.203125,-1.035156 v 5.917969 h 5.039062 v 2.734375 h -5.039062 v 11.269531 q 0,2.011719 0.683593,2.871094 0.683594,0.859375 2.265625,0.859375 1.210938,0 2.089844,-0.664063 z" />
      <path
         inkscape:connector-curvature="0"
         id="path980"
         style="font-style:normal;font-variant:normal;font-weight:normal;font-stretch:normal;font-family:Ebrima;-inkscape-font-specification:Ebrima;fill:#748ed2;fill-opacity:1"
         d="m 97.382812,73.121974 q -0.859375,0 -1.464843,-0.585938 -0.605469,-0.585937 -0.605469,-1.484375 0,-0.898437 0.605469,-1.484375 0.605468,-0.605468 1.464843,-0.605468 0.878907,0 1.484375,0.605468 0.625,0.585938 0.625,1.484375 0,0.859375 -0.625,1.464844 -0.605468,0.605469 -1.484375,0.605469 z m 1.5625,25.078125 h -3.203125 v -20 h 3.203125 z" />
      <path
         inkscape:connector-curvature="0"
         id="path982"
         style="font-style:normal;font-variant:normal;font-weight:normal;font-stretch:normal;font-family:Ebrima;-inkscape-font-specification:Ebrima;fill:#748ed2;fill-opacity:1"
         d="m 113.78906,98.668849 q -4.43359,0 -7.08984,-2.792969 -2.63672,-2.8125 -2.63672,-7.441406 0,-5.039063 2.75391,-7.871094 2.7539,-2.832031 7.4414,-2.832031 4.47266,0 6.97266,2.753906 2.51953,2.753906 2.51953,7.636719 0,4.785156 -2.71484,7.675781 -2.69532,2.871094 -7.2461,2.871094 z m 0.23438,-18.242188 q -3.08594,0 -4.88281,2.109375 -1.79688,2.089844 -1.79688,5.78125 0,3.554688 1.81641,5.605469 1.8164,2.050781 4.86328,2.050781 3.10547,0 4.76562,-2.011718 1.67969,-2.011719 1.67969,-5.722657 0,-3.75 -1.67969,-5.78125 -1.66015,-2.03125 -4.76562,-2.03125 z" />
      <path
         inkscape:connector-curvature="0"
         id="path984"
         style="font-style:normal;font-variant:normal;font-weight:normal;font-stretch:normal;font-family:Ebrima;-inkscape-font-specification:Ebrima;fill:#748ed2;fill-opacity:1"
         d="m 145.46875,98.200099 h -3.20313 v -11.40625 q 0,-6.367188 -4.64843,-6.367188 -2.40235,0 -3.98438,1.816407 -1.5625,1.796875 -1.5625,4.550781 v 11.40625 h -3.20312 v -20 h 3.20312 v 3.320312 h 0.0781 q 2.26562,-3.789062 6.5625,-3.789062 3.28125,0 5.01953,2.128906 1.73828,2.109375 1.73828,6.113281 z" />
      <path
         inkscape:connector-curvature="0"
         id="path986"
         style="font-style:normal;font-variant:normal;font-weight:normal;font-stretch:normal;font-family:Ebrima;-inkscape-font-specification:Ebrima;fill:#748ed2;fill-opacity:1"
         d="m 150.3125,97.477443 v -3.4375 q 2.61719,1.933593 5.76172,1.933593 4.21875,0 4.21875,-2.8125 0,-0.800781 -0.3711,-1.347656 -0.35156,-0.566406 -0.97656,-0.996094 -0.60547,-0.429687 -1.44531,-0.761718 -0.82031,-0.351563 -1.77734,-0.722657 -1.32813,-0.527343 -2.34375,-1.054687 -0.9961,-0.546875 -1.67969,-1.210938 -0.66406,-0.683593 -1.01563,-1.542968 -0.33203,-0.859375 -0.33203,-2.011719 0,-1.40625 0.64453,-2.480469 0.64453,-1.09375 1.71875,-1.816406 1.07422,-0.742188 2.44141,-1.113281 1.38672,-0.371094 2.85156,-0.371094 2.59766,0 4.64844,0.898437 v 3.242188 q -2.20703,-1.445313 -5.07813,-1.445313 -0.89843,0 -1.62109,0.214844 -0.72266,0.195313 -1.25,0.566406 -0.50781,0.371094 -0.80078,0.898438 -0.27344,0.507812 -0.27344,1.132812 0,0.78125 0.27344,1.308594 0.29297,0.527344 0.83984,0.9375 0.54688,0.410156 1.32813,0.742188 0.78125,0.332031 1.77734,0.722656 1.32813,0.507812 2.38281,1.054687 1.05469,0.527344 1.79688,1.210938 0.74219,0.664062 1.13281,1.542969 0.41016,0.878906 0.41016,2.089843 0,1.484375 -0.66406,2.578125 -0.64454,1.09375 -1.73829,1.816407 -1.09375,0.722656 -2.51953,1.074218 -1.42578,0.351563 -2.98828,0.351563 -3.08594,0 -5.35156,-1.191406 z" />
    </g>
    <g
       id="flowRoot893"
       style="font-style:normal;font-variant:normal;font-weight:normal;font-stretch:normal;font-size:40px;line-height:0;font-family:'Adobe Naskh';-inkscape-font-specification:'Adobe Naskh';letter-spacing:0px;word-spacing:0px;fill:#3cda35;fill-opacity:1;stroke:none"
       transform="matrix(0.50565158,0,0,0.50565158,60.113512,-51.562189)"
       aria-label="Towards a Clean Green World">
      <g
         transform="translate(-26.044597,32.245691)"
         id="g1012"
         style="fill:#3cda35;fill-opacity:1">
        <path
           d="m -280.15625,73.161036 h -8.08594 v 25.039063 h -3.28125 V 73.161036 h -8.0664 v -2.96875 h 19.43359 z"
           style="font-style:normal;font-variant:normal;font-weight:normal;font-stretch:normal;font-family:Ebrima;-inkscape-font-specification:Ebrima;fill:#3cda35;fill-opacity:1"
           id="path895"
           inkscape:connector-curvature="0" />
        <path
           d="m -267.85156,98.668849 q -4.4336,0 -7.08985,-2.792969 -2.63671,-2.8125 -2.63671,-7.441406 0,-5.039063 2.7539,-7.871094 2.75391,-2.832031 7.44141,-2.832031 4.47265,0 6.97265,2.753906 2.51954,2.753906 2.51954,7.636719 0,4.785156 -2.71485,7.675781 -2.69531,2.871094 -7.24609,2.871094 z m 0.23437,-18.242188 q -3.08593,0 -4.88281,2.109375 -1.79687,2.089844 -1.79687,5.78125 0,3.554688 1.8164,5.605469 1.81641,2.050781 4.86328,2.050781 3.10547,0 4.76563,-2.011718 1.67969,-2.011719 1.67969,-5.722657 0,-3.75 -1.67969,-5.78125 -1.66016,-2.03125 -4.76563,-2.03125 z"
           style="font-style:normal;font-variant:normal;font-weight:normal;font-stretch:normal;font-family:Ebrima;-inkscape-font-specification:Ebrima;fill:#3cda35;fill-opacity:1"
           id="path897"
           inkscape:connector-curvature="0" />
        <path
           d="m -227.57812,78.200099 -5.9961,20 h -3.32031 l -4.12109,-14.316406 q -0.23438,-0.820313 -0.3125,-1.855469 h -0.0781 q -0.0586,0.703125 -0.41016,1.816406 l -4.47265,14.355469 h -3.20313 l -6.05468,-20 h 3.35937 l 4.14063,15.039062 q 0.19531,0.683594 0.27343,1.796875 h 0.15625 q 0.0586,-0.859375 0.35157,-1.835937 l 4.60937,-15 h 2.92969 l 4.14062,15.078125 q 0.19532,0.722656 0.29297,1.796875 h 0.15625 q 0.0391,-0.761719 0.33203,-1.796875 l 4.0625,-15.078125 z"
           style="font-style:normal;font-variant:normal;font-weight:normal;font-stretch:normal;font-family:Ebrima;-inkscape-font-specification:Ebrima;fill:#3cda35;fill-opacity:1"
           id="path899"
           inkscape:connector-curvature="0" />
        <path
           d="m -209.55078,98.200099 h -3.20313 v -3.125 h -0.0781 q -2.08984,3.59375 -6.15234,3.59375 -2.98829,0 -4.6875,-1.582031 -1.67969,-1.582032 -1.67969,-4.199219 0,-5.605469 6.60156,-6.523438 l 5.99609,-0.839843 q 0,-5.097657 -4.12109,-5.097657 -3.61328,0 -6.52344,2.460938 v -3.28125 q 2.94922,-1.875 6.79688,-1.875 7.05078,0 7.05078,7.460937 z m -3.20313,-10.117188 -4.82421,0.664063 q -2.22657,0.3125 -3.35938,1.113281 -1.13281,0.78125 -1.13281,2.792969 0,1.464844 1.03515,2.402344 1.05469,0.917968 2.79297,0.917968 2.38282,0 3.92578,-1.660156 1.5625,-1.679687 1.5625,-4.238281 z"
           style="font-style:normal;font-variant:normal;font-weight:normal;font-stretch:normal;font-family:Ebrima;-inkscape-font-specification:Ebrima;fill:#3cda35;fill-opacity:1"
           id="path901"
           inkscape:connector-curvature="0" />
        <path
           d="m -193.04687,81.442286 q -0.83985,-0.644531 -2.42188,-0.644531 -2.05078,0 -3.4375,1.933594 -1.36719,1.933594 -1.36719,5.273437 v 10.195313 h -3.20312 v -20 h 3.20312 v 4.121094 h 0.0781 q 0.68359,-2.109375 2.08984,-3.28125 1.40625,-1.191407 3.14453,-1.191407 1.25,0 1.91407,0.273438 z"
           style="font-style:normal;font-variant:normal;font-weight:normal;font-stretch:normal;font-family:Ebrima;-inkscape-font-specification:Ebrima;fill:#3cda35;fill-opacity:1"
           id="path903"
           inkscape:connector-curvature="0" />
        <path
           d="m -172.5,98.200099 h -3.20312 v -3.398438 h -0.0781 q -2.22656,3.867188 -6.875,3.867188 -3.76953,0 -6.03516,-2.675781 -2.24609,-2.695313 -2.24609,-7.324219 0,-4.960938 2.5,-7.949219 2.5,-2.988281 6.66016,-2.988281 4.12109,0 5.99609,3.242187 h 0.0781 V 68.590724 H -172.5 Z m -3.20312,-9.042969 v -2.949219 q 0,-2.421875 -1.60157,-4.101562 -1.60156,-1.679688 -4.0625,-1.679688 -2.92968,0 -4.60937,2.148438 -1.67969,2.148437 -1.67969,5.9375 0,3.457031 1.60156,5.46875 1.6211,1.992187 4.33594,1.992187 2.67578,0 4.33594,-1.933593 1.67969,-1.933594 1.67969,-4.882813 z"
           style="font-style:normal;font-variant:normal;font-weight:normal;font-stretch:normal;font-family:Ebrima;-inkscape-font-specification:Ebrima;fill:#3cda35;fill-opacity:1"
           id="path905"
           inkscape:connector-curvature="0" />
        <path
           d="m -167.1875,97.477443 v -3.4375 q 2.61719,1.933593 5.76172,1.933593 4.21875,0 4.21875,-2.8125 0,-0.800781 -0.37109,-1.347656 -0.35157,-0.566406 -0.97657,-0.996094 -0.60547,-0.429687 -1.44531,-0.761718 -0.82031,-0.351563 -1.77734,-0.722657 -1.32813,-0.527343 -2.34375,-1.054687 -0.9961,-0.546875 -1.67969,-1.210938 -0.66406,-0.683593 -1.01563,-1.542968 -0.33203,-0.859375 -0.33203,-2.011719 0,-1.40625 0.64453,-2.480469 0.64454,-1.09375 1.71875,-1.816406 1.07422,-0.742188 2.44141,-1.113281 1.38672,-0.371094 2.85156,-0.371094 2.59766,0 4.64844,0.898437 v 3.242188 q -2.20703,-1.445313 -5.07812,-1.445313 -0.89844,0 -1.6211,0.214844 -0.72265,0.195313 -1.25,0.566406 -0.50781,0.371094 -0.80078,0.898438 -0.27344,0.507812 -0.27344,1.132812 0,0.78125 0.27344,1.308594 0.29297,0.527344 0.83984,0.9375 0.54688,0.410156 1.32813,0.742188 0.78125,0.332031 1.77734,0.722656 1.32813,0.507812 2.38282,1.054687 1.05468,0.527344 1.79687,1.210938 0.74219,0.664062 1.13281,1.542969 0.41016,0.878906 0.41016,2.089843 0,1.484375 -0.66406,2.578125 -0.64453,1.09375 -1.73828,1.816407 -1.09375,0.722656 -2.51954,1.074218 -1.42578,0.351563 -2.98828,0.351563 -3.08593,0 -5.35156,-1.191406 z"
           style="font-style:normal;font-variant:normal;font-weight:normal;font-stretch:normal;font-family:Ebrima;-inkscape-font-specification:Ebrima;fill:#3cda35;fill-opacity:1"
           id="path907"
           inkscape:connector-curvature="0" />
        <path
           d="m -123.76953,98.200099 h -3.20313 v -3.125 h -0.0781 q -2.08984,3.59375 -6.15234,3.59375 -2.98829,0 -4.6875,-1.582031 -1.67969,-1.582032 -1.67969,-4.199219 0,-5.605469 6.60156,-6.523438 l 5.99609,-0.839843 q 0,-5.097657 -4.12109,-5.097657 -3.61328,0 -6.52344,2.460938 v -3.28125 q 2.94922,-1.875 6.79688,-1.875 7.05078,0 7.05078,7.460937 z m -3.20313,-10.117188 -4.82421,0.664063 q -2.22657,0.3125 -3.35938,1.113281 -1.13281,0.78125 -1.13281,2.792969 0,1.464844 1.03515,2.402344 1.05469,0.917968 2.79297,0.917968 2.38282,0 3.92578,-1.660156 1.5625,-1.679687 1.5625,-4.238281 z"
           style="font-style:normal;font-variant:normal;font-weight:normal;font-stretch:normal;font-family:Ebrima;-inkscape-font-specification:Ebrima;fill:#3cda35;fill-opacity:1"
           id="path909"
           inkscape:connector-curvature="0" />
        <path
           d="M -87.265625,97.028224 Q -90.371094,98.668849 -95,98.668849 q -5.97656,0 -9.57031,-3.847656 -3.59375,-3.847657 -3.59375,-10.097657 0,-6.71875 4.04297,-10.859375 4.04296,-4.140625 10.253903,-4.140625 3.984375,0 6.601562,1.152344 v 3.496094 q -3.007812,-1.679688 -6.640625,-1.679688 -4.824219,0 -7.83203,3.222657 -2.98828,3.222656 -2.98828,8.613281 0,5.117187 2.79297,8.164062 2.812496,3.027344 7.363278,3.027344 4.21875,0 7.304687,-1.875 z"
           style="font-style:normal;font-variant:normal;font-weight:normal;font-stretch:normal;font-family:Ebrima;-inkscape-font-specification:Ebrima;fill:#3cda35;fill-opacity:1"
           id="path911"
           inkscape:connector-curvature="0" />
        <path
           d="m -78.789062,98.200099 h -3.203125 V 68.590724 h 3.203125 z"
           style="font-style:normal;font-variant:normal;font-weight:normal;font-stretch:normal;font-family:Ebrima;-inkscape-font-specification:Ebrima;fill:#3cda35;fill-opacity:1"
           id="path913"
           inkscape:connector-curvature="0" />
        <path
           d="m -56.230469,89.00088 h -14.121093 q 0.07813,3.339844 1.796875,5.15625 1.71875,1.816406 4.726562,1.816406 3.378906,0 6.210938,-2.226562 v 3.007812 q -2.636719,1.914063 -6.972657,1.914063 -4.238281,0 -6.660156,-2.714844 -2.421875,-2.734375 -2.421875,-7.675781 0,-4.667969 2.636719,-7.597656 2.65625,-2.949219 6.582031,-2.949219 3.925781,0 6.074219,2.539062 2.148437,2.539063 2.148437,7.050782 z m -3.28125,-2.714844 q -0.01953,-2.773437 -1.347656,-4.316406 -1.308594,-1.542969 -3.652344,-1.542969 -2.265625,0 -3.847656,1.621094 -1.582031,1.621094 -1.953125,4.238281 z"
           style="font-style:normal;font-variant:normal;font-weight:normal;font-stretch:normal;font-family:Ebrima;-inkscape-font-specification:Ebrima;fill:#3cda35;fill-opacity:1"
           id="path915"
           inkscape:connector-curvature="0" />
        <path
           d="m -37.050781,98.200099 h -3.203125 v -3.125 h -0.07813 q -2.089844,3.59375 -6.152344,3.59375 -2.988281,0 -4.6875,-1.582031 -1.679687,-1.582032 -1.679687,-4.199219 0,-5.605469 6.601562,-6.523438 l 5.996094,-0.839843 q 0,-5.097657 -4.121094,-5.097657 -3.613281,0 -6.523437,2.460938 v -3.28125 q 2.949218,-1.875 6.796875,-1.875 7.050781,0 7.050781,7.460937 z m -3.203125,-10.117188 -4.824219,0.664063 q -2.226562,0.3125 -3.359375,1.113281 -1.132812,0.78125 -1.132812,2.792969 0,1.464844 1.035156,2.402344 1.054687,0.917968 2.792969,0.917968 2.382812,0 3.925781,-1.660156 1.5625,-1.679687 1.5625,-4.238281 z"
           style="font-style:normal;font-variant:normal;font-weight:normal;font-stretch:normal;font-family:Ebrima;-inkscape-font-specification:Ebrima;fill:#3cda35;fill-opacity:1"
           id="path917"
           inkscape:connector-curvature="0" />
        <path
           d="m -14.375,98.200099 h -3.203125 v -11.40625 q 0,-6.367188 -4.648437,-6.367188 -2.402344,0 -3.984375,1.816407 -1.5625,1.796875 -1.5625,4.550781 v 11.40625 h -3.203125 v -20 h 3.203125 v 3.320312 h 0.07813 q 2.265625,-3.789062 6.5625,-3.789062 3.28125,0 5.019531,2.128906 1.738281,2.109375 1.738281,6.113281 z"
           style="font-style:normal;font-variant:normal;font-weight:normal;font-stretch:normal;font-family:Ebrima;-inkscape-font-specification:Ebrima;fill:#3cda35;fill-opacity:1"
           id="path919"
           inkscape:connector-curvature="0" />
        <path
           d="m 23.984375,96.286036 q -4.21875,2.382813 -9.375,2.382813 -5.9960937,0 -9.7070313,-3.867188 -3.6914062,-3.867187 -3.6914062,-10.234375 0,-6.503906 4.1015625,-10.664062 4.1210938,-4.179688 10.429688,-4.179688 4.570312,0 7.675781,1.484375 v 3.632813 q -3.398438,-2.148438 -8.046875,-2.148438 -4.707031,0 -7.714844,3.242188 -3.0078125,3.242187 -3.0078125,8.398437 0,5.3125 2.7929687,8.359375 2.7929688,3.027344 7.5781248,3.027344 3.28125,0 5.683594,-1.308594 v -7.851562 h -6.132812 v -2.96875 h 9.414062 z"
           style="font-style:normal;font-variant:normal;font-weight:normal;font-stretch:normal;font-family:Ebrima;-inkscape-font-specification:Ebrima;fill:#3cda35;fill-opacity:1"
           id="path921"
           inkscape:connector-curvature="0" />
        <path
           d="m 40.46875,81.442286 q -0.839844,-0.644531 -2.421875,-0.644531 -2.050781,0 -3.4375,1.933594 -1.367188,1.933594 -1.367188,5.273437 v 10.195313 h -3.203125 v -20 h 3.203125 v 4.121094 h 0.07813 q 0.683594,-2.109375 2.089844,-3.28125 1.40625,-1.191407 3.144531,-1.191407 1.25,0 1.914063,0.273438 z"
           style="font-style:normal;font-variant:normal;font-weight:normal;font-stretch:normal;font-family:Ebrima;-inkscape-font-specification:Ebrima;fill:#3cda35;fill-opacity:1"
           id="path923"
           inkscape:connector-curvature="0" />
        <path
           d="M 60.019531,89.00088 H 45.898437 q 0.07813,3.339844 1.796875,5.15625 1.71875,1.816406 4.726563,1.816406 3.378906,0 6.210937,-2.226562 v 3.007812 q -2.636718,1.914063 -6.972656,1.914063 -4.238281,0 -6.660156,-2.714844 -2.421875,-2.734375 -2.421875,-7.675781 0,-4.667969 2.636719,-7.597656 2.65625,-2.949219 6.582031,-2.949219 3.925781,0 6.074219,2.539062 2.148437,2.539063 2.148437,7.050782 z m -3.28125,-2.714844 q -0.01953,-2.773437 -1.347656,-4.316406 -1.308594,-1.542969 -3.652344,-1.542969 -2.265625,0 -3.847656,1.621094 -1.582031,1.621094 -1.953125,4.238281 z"
           style="font-style:normal;font-variant:normal;font-weight:normal;font-stretch:normal;font-family:Ebrima;-inkscape-font-specification:Ebrima;fill:#3cda35;fill-opacity:1"
           id="path925"
           inkscape:connector-curvature="0" />
        <path
           d="M 80.957031,89.00088 H 66.835937 q 0.07813,3.339844 1.796875,5.15625 1.71875,1.816406 4.726563,1.816406 3.378906,0 6.210937,-2.226562 v 3.007812 q -2.636718,1.914063 -6.972656,1.914063 -4.238281,0 -6.660156,-2.714844 -2.421875,-2.734375 -2.421875,-7.675781 0,-4.667969 2.636719,-7.597656 2.65625,-2.949219 6.582031,-2.949219 3.925781,0 6.074219,2.539062 2.148437,2.539063 2.148437,7.050782 z m -3.28125,-2.714844 q -0.01953,-2.773437 -1.347656,-4.316406 -1.308594,-1.542969 -3.652344,-1.542969 -2.265625,0 -3.847656,1.621094 -1.582031,1.621094 -1.953125,4.238281 z"
           style="font-style:normal;font-variant:normal;font-weight:normal;font-stretch:normal;font-family:Ebrima;-inkscape-font-specification:Ebrima;fill:#3cda35;fill-opacity:1"
           id="path927"
           inkscape:connector-curvature="0" />
        <path
           d="m 102.42188,98.200099 h -3.20313 v -11.40625 q 0,-6.367188 -4.648438,-6.367188 -2.402343,0 -3.984375,1.816407 -1.5625,1.796875 -1.5625,4.550781 v 11.40625 h -3.203125 v -20 h 3.203125 v 3.320312 h 0.07813 q 2.265625,-3.789062 6.5625,-3.789062 3.28125,0 5.019523,2.128906 1.7383,2.109375 1.7383,6.113281 z"
           style="font-style:normal;font-variant:normal;font-weight:normal;font-stretch:normal;font-family:Ebrima;-inkscape-font-specification:Ebrima;fill:#3cda35;fill-opacity:1"
           id="path929"
           inkscape:connector-curvature="0" />
        <path
           d="m 153.04687,70.192286 -7.91015,28.007813 h -3.84766 l -5.76172,-20.46875 q -0.37109,-1.308594 -0.44922,-2.851563 H 135 q -0.11719,1.445313 -0.50781,2.8125 l -5.80078,20.507813 h -3.8086 l -8.20312,-28.007813 h 3.61328 L 126.25,91.676661 q 0.37109,1.347657 0.46875,2.8125 h 0.0977 q 0.0977,-1.035156 0.60547,-2.8125 l 6.1914,-21.484375 h 3.14453 l 5.9375,21.640625 q 0.3125,1.113282 0.46875,2.617188 h 0.0781 q 0.0781,-1.015625 0.52734,-2.695313 l 5.72266,-21.5625 z"
           style="font-style:normal;font-variant:normal;font-weight:normal;font-stretch:normal;font-family:Ebrima;-inkscape-font-specification:Ebrima;fill:#3cda35;fill-opacity:1"
           id="path931"
           inkscape:connector-curvature="0" />
        <path
           d="m 165.11719,98.668849 q -4.4336,0 -7.08985,-2.792969 -2.63672,-2.8125 -2.63672,-7.441406 0,-5.039063 2.75391,-7.871094 2.75391,-2.832031 7.44141,-2.832031 4.47265,0 6.97265,2.753906 2.51953,2.753906 2.51953,7.636719 0,4.785156 -2.71484,7.675781 -2.69531,2.871094 -7.24609,2.871094 z m 0.23437,-18.242188 q -3.08594,0 -4.88281,2.109375 -1.79688,2.089844 -1.79688,5.78125 0,3.554688 1.81641,5.605469 1.81641,2.050781 4.86328,2.050781 3.10547,0 4.76563,-2.011718 1.67968,-2.011719 1.67968,-5.722657 0,-3.75 -1.67968,-5.78125 -1.66016,-2.03125 -4.76563,-2.03125 z"
           style="font-style:normal;font-variant:normal;font-weight:normal;font-stretch:normal;font-family:Ebrima;-inkscape-font-specification:Ebrima;fill:#3cda35;fill-opacity:1"
           id="path933"
           inkscape:connector-curvature="0" />
        <path
           d="m 190.625,81.442286 q -0.83984,-0.644531 -2.42188,-0.644531 -2.05078,0 -3.4375,1.933594 -1.36718,1.933594 -1.36718,5.273437 v 10.195313 h -3.20313 v -20 h 3.20313 v 4.121094 h 0.0781 q 0.6836,-2.109375 2.08985,-3.28125 1.40625,-1.191407 3.14453,-1.191407 1.25,0 1.91406,0.273438 z"
           style="font-style:normal;font-variant:normal;font-weight:normal;font-stretch:normal;font-family:Ebrima;-inkscape-font-specification:Ebrima;fill:#3cda35;fill-opacity:1"
           id="path935"
           inkscape:connector-curvature="0" />
        <path
           d="m 197.30469,98.200099 h -3.20313 V 68.590724 h 3.20313 z"
           style="font-style:normal;font-variant:normal;font-weight:normal;font-stretch:normal;font-family:Ebrima;-inkscape-font-specification:Ebrima;fill:#3cda35;fill-opacity:1"
           id="path937"
           inkscape:connector-curvature="0" />
        <path
           d="m 220.85937,98.200099 h -3.20312 v -3.398438 h -0.0781 q -2.22656,3.867188 -6.875,3.867188 -3.76953,0 -6.03515,-2.675781 -2.2461,-2.695313 -2.2461,-7.324219 0,-4.960938 2.5,-7.949219 2.5,-2.988281 6.66016,-2.988281 4.12109,0 5.99609,3.242187 h 0.0781 V 68.590724 h 3.20312 z m -3.20312,-9.042969 v -2.949219 q 0,-2.421875 -1.60156,-4.101562 -1.60157,-1.679688 -4.0625,-1.679688 -2.92969,0 -4.60938,2.148438 -1.67969,2.148437 -1.67969,5.9375 0,3.457031 1.60157,5.46875 1.62109,1.992187 4.33593,1.992187 2.67579,0 4.33594,-1.933593 1.67969,-1.933594 1.67969,-4.882813 z"
           style="font-style:normal;font-variant:normal;font-weight:normal;font-stretch:normal;font-family:Ebrima;-inkscape-font-specification:Ebrima;fill:#3cda35;fill-opacity:1"
           id="path939"
           inkscape:connector-curvature="0" />
      </g>
    </g>
  </g>
</svg>
